# xmcd
#
# Track frame offsets:
#	150
#	21564
#	45266
#	87494
#	119409
#	144986
#	169438
#	188415
#	204954
#	229557
#	246582
#	269648
#	296126
#	332465
#
# Disc length: 4699 seconds
#
# Revision: 1
# Processed by: cddbd v1.5.2PL0 Copyright (c) Steve Scherf et al.
# Submitted via: audiograbber 1.83.01
#
DISCID=cd12590e
DTITLE=—борник - Bluse Paradise  vol.31
DYEAR=2000
DGENRE=Blues
TTITLE0=James Solberg - The Hand You're Dealt
TTITLE1=Sean Costello - I'm Leaving
TTITLE2=Rudy Rotta - Deep Down
TTITLE3=Calvin Russell - Crossroads
TTITLE4=Big George And Business - Tonight The Bottle Let Me Down
TTITLE5=Melvin Taylor and The Slack Band - Another Bad Day
TTITLE6=Robin Trower - In My Dream
TTITLE7=Huub Van Der Lubbe And Cuby Blizzards - Window Of My Eaey
TTITLE8=Cuby and Blizzards - Dancing Bear
TTITLE9=Muskee - Tonight On Me
TTITLE10=Tommy Shrieve Band - You Got A Love
TTITLE11=Peter Garstenauer - Down For Yoy
TTITLE12=Phil Guy - Fixin' To Die
TTITLE13=The Hamsters - Hey Joe
EXTD=
EXTT0=
EXTT1=
EXTT2=
EXTT3=
EXTT4=
EXTT5=
EXTT6=
EXTT7=
EXTT8=
EXTT9=
EXTT10=
EXTT11=
EXTT12=
EXTT13=
PLAYORDER=
